<svg version="1.1" id="Layer_1" xmlns="http://www.w3.org/2000/svg" xmlns:xlink="http://www.w3.org/1999/xlink" x="0px" y="0px" viewBox="0 0 500 500" style="width: 188px;" xml:space="preserve" data-imageid="qr-code-37" imageName="QR Code" class="illustrations_image">
<style type="text/css">
	.st0_qr-code-37{fill:#68E1FD;}
	.st1_qr-code-37{fill:#093F68;}
	.st2_qr-code-37{fill:#FFFFFF;}
	.st3_qr-code-37{fill:#DFEAEF;}
	.st4_qr-code-37{fill:#FFC9B0;}
</style>
<g id="device_qr-code-37">
	<path class="st0_qr-code-37 targetColor" d="M252.1,41.5h218.5c4.6,0,8.3,3.7,8.3,8.3c0,0,0,0,0,0v324.7c0,4.6-3.7,8.3-8.2,8.3c0,0,0,0,0,0H252.1&#10;&#9;&#9;c-4.6,0-8.3-3.7-8.3-8.2c0,0,0,0,0,0V49.8C243.8,45.2,247.5,41.6,252.1,41.5z" style="fill: rgb(105, 108, 255);"/>
	<path class="st1_qr-code-37" d="M463.4,384.9H259.2c-9.7,0-17.5-7.8-17.5-17.5c0,0,0,0,0-0.1V57c0-9.7,7.8-17.5,17.5-17.5c0,0,0,0,0.1,0h204.2&#10;&#9;&#9;c9.7,0,17.6,7.8,17.6,17.4c0,0,0,0.1,0,0.1v310.3C481,377,473.2,384.9,463.4,384.9C463.5,384.9,463.4,384.9,463.4,384.9z&#10;&#9;&#9; M259.2,43.5c-7.4,0-13.4,6-13.4,13.3c0,0,0,0.1,0,0.1v310.3c0,7.4,5.9,13.3,13.3,13.4c0,0,0,0,0,0h204.2c7.4,0,13.3-5.9,13.4-13.3&#10;&#9;&#9;c0,0,0,0,0-0.1V57c0-7.4-6-13.4-13.4-13.5L259.2,43.5z"/>
	<rect x="243.8" y="75.4" class="st2_qr-code-37" width="235.1" height="266.5"/>
	<path class="st1_qr-code-37" d="M478.9,343.9H243.8c-1.2,0-2.1-0.9-2.1-2.1c0,0,0,0,0,0V75.4c0-1.2,0.9-2.1,2.1-2.1c0,0,0,0,0,0h235.1&#10;&#9;&#9;c1.2,0,2.1,0.9,2.1,2.1c0,0,0,0,0,0V342C480.9,343.1,480,344,478.9,343.9z M245.9,339.9h231V77.4h-231V339.9z"/>
	<path class="st1_qr-code-37" d="M382.1,60.4h-26.6c-1.1,0.1-2.1-0.8-2.2-1.9c-0.1-1.1,0.8-2.1,1.9-2.2l0,0h26.9c1.1-0.1,2.1,0.8,2.2,1.9&#10;&#9;&#9;c0.1,1.1-0.8,2.1-1.9,2.2H382.1z"/>
	<path class="st1_qr-code-37" d="M345.8,60.4h-5.2c-1.1,0.1-2.1-0.8-2.2-1.9c-0.1-1.1,0.8-2.1,1.9-2.2h5.5c1.1-0.1,2.1,0.8,2.2,1.9&#10;&#9;&#9;c0.1,1.1-0.8,2.1-1.9,2.2H345.8z"/>
	<path class="st1_qr-code-37" d="M361.3,374.4c-6.9,0-12.5-5.6-12.5-12.5s5.6-12.5,12.5-12.5s12.5,5.6,12.5,12.5l0,0&#10;&#9;&#9;C373.8,368.8,368.2,374.4,361.3,374.4z M361.3,353.6c-4.6,0-8.4,3.8-8.4,8.4s3.8,8.4,8.4,8.4s8.4-3.8,8.4-8.4l0,0&#10;&#9;&#9;c0-4.6-3.7-8.4-8.3-8.4C361.4,353.6,361.4,353.6,361.3,353.6z"/>
</g>
<g id="qr_qr-code-37">
	<path class="st1_qr-code-37" d="M340.8,136.1v51.8H289v-51.8H340.8z M330.4,177.5v-31h-31v31H330.4z"/>
	<path class="st1_qr-code-37" d="M382.4,136h51.8v51.9h-51.8V136z M392.8,146.4v31h31v-31H392.8z"/>
	<path class="st1_qr-code-37" d="M340.8,281.2H289v-51.8h51.8L340.8,281.2z M299.4,239.9v31h31v-31L299.4,239.9z"/>
	<path class="st1_qr-code-37" d="M382.4,229.4h31.1v-20.8h10.4v-10.4h10.4v20.6h-10.4v20.9h-10.4v10.4h10.4v10.4h-20.8v-20.8h-20.8V229.4z"/>
	<path class="st1_qr-code-37" d="M361.6,198.2h-10.4v-20.8h10.3v-10.4h-10.3V136h20.6v10.3h-10.3v10.4h10.3v31.2h-10.3V198.2z"/>
	<path class="st1_qr-code-37" d="M361.6,208.6v20.8h-10.4v-10.3h-31.1v-10.4h-10.4v-10.4h20.6v10.4L361.6,208.6L361.6,208.6z"/>
	<path class="st1_qr-code-37" d="M403.1,260.5v20.8h-41.5v-10.4h31.1v-10.4H403.1z"/>
	<path class="st1_qr-code-37" d="M361.6,270.9h-10.4v-31.1h10.4v10.4H372v10.4h-10.4V270.9z"/>
	<path class="st1_qr-code-37" d="M403.1,198.4V219h-10.3v-10.4h-10.4v-10.4h20.6L403.1,198.4z"/>
	<path class="st1_qr-code-37" d="M361.6,239.8v-10.5H372v10.4L361.6,239.8L361.6,239.8z"/>
	<path class="st1_qr-code-37" d="M372,229.4V219h10.4v10.4H372z"/>
	<path class="st1_qr-code-37" d="M309.7,208.6V219h-10.4v-10.4H309.7z"/>
	<path class="st1_qr-code-37" d="M361.6,208.6v-10.5h10.3v10.4L361.6,208.6z"/>
	<path class="st1_qr-code-37" d="M423.9,239.8h10.4v10.4h-10.4V239.8z"/>
	<path class="st1_qr-code-37" d="M299.4,208.6H289v-10.3h10.3L299.4,208.6L299.4,208.6z"/>
	<path class="st1_qr-code-37" d="M423.9,270.9v-10.5h10.3v10.4L423.9,270.9z"/>
	<path class="st1_qr-code-37" d="M423.9,270.9v10.4h-10.4v-10.4H423.9z"/>
	<path class="st1_qr-code-37" d="M320,156.9v10.3h-10.2v-10.3H320z"/>
	<path class="st1_qr-code-37" d="M413.4,167.1h-10.3v-10.3h10.3V167.1z"/>
	<path class="st1_qr-code-37" d="M309.8,250.2H320v10.3h-10.2V250.2z"/>
	<circle class="st1_qr-code-37" cx="377.2" cy="244.9" r="7.4"/>
	<path class="st1_qr-code-37" d="M392.8,260.6h-10.4v-10.4h10.4V260.6z"/>
	<path class="st3_qr-code-37" d="M271.1,164.6c-1.1,0-2-0.9-2.1-2l0,0V122c0-1.2,0.9-2.1,2.1-2.1h38.7c1.2,0,2.1,0.9,2.1,2.1c0,0,0,0,0,0&#10;&#9;&#9;c0.1,1.1-0.8,2-1.9,2.1c-0.1,0-0.1,0-0.2,0h-36.8v38.6C273.1,163.8,272.2,164.6,271.1,164.6z"/>
	<path class="st3_qr-code-37" d="M452.1,164.6c-1.2,0-2.1-0.9-2.1-2.1l0,0v-38.6h-36.8c-1.2,0-2.1-0.9-2.1-2.1c0,0,0,0,0,0&#10;&#9;&#9;c-0.1-1.1,0.8-2,1.9-2.1c0.1,0,0.1,0,0.2,0H452c1.2,0,2.1,0.9,2.1,2.1c0,0,0,0,0,0v40.7C454.1,163.6,453.2,164.5,452.1,164.6&#10;&#9;&#9;L452.1,164.6z"/>
	<path class="st3_qr-code-37" d="M309.9,297.5h-38.7c-1.1,0-2.1-0.9-2.1-2l0,0v-40.6c0.1-1.1,1.1-2,2.2-1.9c1,0.1,1.8,0.9,1.9,1.9v38.6h36.8&#10;&#9;&#9;c1.2,0,2.1,0.9,2.1,2.1c0,0,0,0,0,0C311.9,296.7,311,297.5,309.9,297.5z"/>
	<path class="st3_qr-code-37" d="M452.1,297.5h-38.7c-1.2-0.1-2-1.1-2-2.2c0.1-1,0.9-1.9,2-2h36.8v-38.6c-0.1-1.2,0.8-2.2,2-2.2s2.2,0.8,2.2,2&#10;&#9;&#9;c0,0.1,0,0.2,0,0.3v40.6C454.3,296.5,453.3,297.4,452.1,297.5L452.1,297.5z"/>
</g>
<g id="hand_device_qr-code-37">
	<g id="hand-1_qr-code-37">
		<path class="st4_qr-code-37" d="M105.8,454.2v-38.6c0-7.8,41.8-49.8,41.8-49.8l-39.4-71.7c0,0-70.9,33.5-81.7,60.2s-4.4,99.9-4.4,99.9H105.8z&#10;&#9;&#9;&#9;"/>
		<path class="st1_qr-code-37" d="M20.7,454.3c-0.2-3-6.2-73.8,4.5-100.6c4.5-11.4,19.9-25.2,45.4-40.9c18.9-11.6,36.8-20.1,36.9-20.2&#10;&#9;&#9;&#9;c0.7-0.3,1.6,0,2,0.7l39.4,71.7c0.4,0.6,0.2,1.4-0.2,1.9c-16,16.1-41.3,43.5-41.3,48.7v38.6c0,0.8-0.7,1.5-1.5,1.5c0,0,0,0,0,0&#10;&#9;&#9;&#9;H22.2C21.4,455.7,20.7,455.1,20.7,454.3z M104.4,415.6c0-7.7,32.9-41.4,41.4-50.1l-38.1-69.4c-9.7,4.7-70,34.9-79.6,58.8&#10;&#9;&#9;&#9;c-9.7,24.1-5.1,87.5-4.4,97.8h80.6L104.4,415.6z"/>
	</g>
	<g id="device-2_qr-code-37">
		<path class="st2_qr-code-37" d="M210.8,174.7H82c-3.9,0-7.1,3.2-7.1,7.1c0,0,0,0,0,0v233.3c0,3.9,3.2,7.1,7.1,7.1c0,0,0,0,0,0h128.8&#10;&#9;&#9;&#9;c3.9,0,7.1-3.2,7.1-7.1c0,0,0,0,0,0V181.9C217.9,178,214.7,174.7,210.8,174.7z"/>
		<path class="st1_qr-code-37" d="M73.3,409.4V187.8c0-8,6.5-14.5,14.6-14.6h117c8,0,14.6,6.5,14.6,14.6v0v221.5c0,8-6.5,14.6-14.6,14.6h0h-117&#10;&#9;&#9;&#9;C79.8,423.9,73.3,417.4,73.3,409.4z M87.8,176.3c-6.3,0-11.4,5.1-11.4,11.4l0,0v221.6c0,6.3,5.1,11.4,11.4,11.4c0,0,0,0,0,0h117&#10;&#9;&#9;&#9;c6.3,0,11.4-5.1,11.4-11.4l0,0V187.8c0-6.3-5-11.4-11.3-11.4c0,0-0.1,0-0.1,0H87.8z"/>
		<circle class="st2_qr-code-37" cx="147.1" cy="404" r="8.7"/>
		<path class="st1_qr-code-37" d="M136.9,404L136.9,404c0-5.7,4.7-10.3,10.3-10.3s10.3,4.7,10.3,10.3c0,5.7-4.7,10.3-10.3,10.3c0,0,0,0,0,0&#10;&#9;&#9;&#9;C141.5,414.3,136.9,409.7,136.9,404z M139.9,404L139.9,404c0,4,3.2,7.2,7.2,7.2s7.2-3.2,7.2-7.2c0-4-3.2-7.2-7.2-7.2&#10;&#9;&#9;&#9;c-3.9,0.1-7.1,3.3-7.1,7.2H139.9z"/>
		<rect x="74.9" y="193.7" class="st0_qr-code-37 targetColor" width="143" height="192.8" style="fill: rgb(105, 108, 255);"/>
		<g id="qr-2_qr-code-37">
			<path class="st1_qr-code-37" d="M134.9,258.3v27h-27v-27H134.9z M129.5,279.9v-16.2h-16.2v16.2H129.5z"/>
			<path class="st1_qr-code-37" d="M156.6,258.2h27v27.1h-27V258.2z M162,263.6v16.2h16.2v-16.2H162z"/>
			<path class="st1_qr-code-37" d="M134.9,334.1h-27V307h27V334.1z M113.3,312.5v16.2h16.2v-16.2H113.3z"/>
			<path class="st1_qr-code-37" d="M156.6,307h16.2v-10.9h5.4v-5.4h5.4v10.8h-5.4v10.9h-5.4v5.4h5.4v5.4h-10.8v-10.8h-10.8V307z"/>
			<path class="st1_qr-code-37" d="M145.8,290.7h-5.4v-10.8h5.4v-5.4h-5.4v-16.2h10.8v5.4h-5.4v5.4h5.4v16.3h-5.4V290.7z"/>
			<path class="st1_qr-code-37" d="M145.8,296.1V307h-5.4v-5.4h-16.3v-5.4h-5.4v-5.4h10.8v5.4L145.8,296.1z"/>
			<path class="st1_qr-code-37" d="M167.4,323.2v10.8h-21.7v-5.4H162v-5.4L167.4,323.2z"/>
			<path class="st1_qr-code-37" d="M145.8,328.6h-5.4v-16.2h5.4v5.4h5.4v5.4h-5.4V328.6L145.8,328.6z"/>
			<path class="st1_qr-code-37" d="M167.4,290.8v10.8h-5.4v-5.4h-5.4v-5.4L167.4,290.8L167.4,290.8z"/>
			<path class="st1_qr-code-37" d="M145.8,312.4v-5.5h5.4v5.4L145.8,312.4z"/>
			<path class="st1_qr-code-37" d="M151.2,307v-5.4h5.4v5.4H151.2z"/>
			<path class="st1_qr-code-37" d="M118.6,296.1v5.4h-5.4v-5.4H118.6z"/>
			<path class="st1_qr-code-37" d="M145.8,296.1v-5.5h5.4v5.4L145.8,296.1z"/>
			<path class="st1_qr-code-37" d="M178.3,312.4h5.4v5.4h-5.4V312.4z"/>
			<path class="st1_qr-code-37" d="M113.3,296.1h-5.4v-5.4h5.4L113.3,296.1z"/>
			<path class="st1_qr-code-37" d="M178.3,328.6v-5.5h5.4v5.4L178.3,328.6z"/>
			<path class="st1_qr-code-37" d="M178.3,328.6v5.4h-5.4v-5.4H178.3z"/>
			<path class="st1_qr-code-37" d="M124,269.1v5.4h-5.4v-5.4H124z"/>
			<path class="st1_qr-code-37" d="M172.8,274.5h-5.4v-5.4h5.4V274.5z"/>
			<path class="st1_qr-code-37" d="M118.7,317.9h5.3v5.4h-5.4L118.7,317.9z"/>
			<circle class="st1_qr-code-37" cx="153.9" cy="315.1" r="3.9"/>
			<path class="st1_qr-code-37" d="M162,323.3h-5.4v-5.4h5.4V323.3z"/>
			<path class="st3_qr-code-37" d="M98.5,273.1c-0.6,0-1-0.4-1.1-1l0,0v-21.2c0-0.6,0.5-1.1,1.1-1.1h20.2c0.6,0,1.1,0.5,1.1,1.1c0,0,0,0,0,0&#10;&#9;&#9;&#9;&#9;c0,0.6-0.4,1.1-1,1.1c0,0,0,0-0.1,0H99.6v20.2C99.5,272.7,99.1,273.2,98.5,273.1C98.5,273.1,98.5,273.1,98.5,273.1z"/>
			<path class="st3_qr-code-37" d="M193,273.1c-0.6,0-1.1-0.5-1.1-1.1l0,0v-20.2h-19.2c-0.6,0-1.1-0.5-1.1-1.1c0,0,0,0,0,0c0-0.6,0.4-1.1,1-1.1&#10;&#9;&#9;&#9;&#9;c0,0,0.1,0,0.1,0H193c0.6,0,1.1,0.5,1.1,1.1c0,0,0,0,0,0v21.3C194.1,272.6,193.7,273.1,193,273.1L193,273.1z"/>
			<path class="st3_qr-code-37" d="M118.7,342.5H98.5c-0.6,0-1-0.4-1.1-1l0,0v-21.2c0.1-0.6,0.6-1,1.2-1c0.5,0,1,0.5,1,1v20.2h19.2&#10;&#9;&#9;&#9;&#9;c0.6,0,1.1,0.5,1.1,1.1l0,0C119.8,342.1,119.3,342.6,118.7,342.5z"/>
			<path class="st3_qr-code-37" d="M193,342.5h-20.2c-0.6,0.1-1.1-0.4-1.2-1c-0.1-0.6,0.4-1.1,1-1.2c0.1,0,0.1,0,0.2,0H192v-20.2&#10;&#9;&#9;&#9;&#9;c-0.1-0.6,0.4-1.1,1-1.2c0.6-0.1,1.1,0.4,1.2,1c0,0.1,0,0.1,0,0.2v21.2C194.2,342,193.7,342.5,193,342.5L193,342.5z"/>
		</g>
		<path class="st1_qr-code-37" d="M74.9,388c-0.8,0.1-1.5-0.5-1.5-1.3c0-0.1,0-0.2,0-0.2V193.7l0,0c0-0.8,0.7-1.5,1.5-1.5c0,0,0,0,0,0h143&#10;&#9;&#9;&#9;c0.8,0,1.5,0.7,1.5,1.5c0,0,0,0,0,0v192.8l0,0c0,0.8-0.7,1.5-1.5,1.5H74.9z M216.4,195.2h-140V385h140V195.2z"/>
		<path class="st1_qr-code-37" d="M153.5,186.1h2.9c0.9,0.1,1.6-0.6,1.7-1.4c0.1-0.9-0.6-1.6-1.4-1.7c0,0,0,0,0,0h-3.1&#10;&#9;&#9;&#9;c-0.9,0.1-1.5,0.8-1.4,1.7C152.1,185.4,152.7,186,153.5,186.1z"/>
		<path class="st1_qr-code-37" d="M136.3,186.1h13.1c0.9-0.1,1.5-0.8,1.4-1.7c-0.1-0.8-0.7-1.4-1.4-1.4h-13.1c-0.9,0.1-1.5,0.8-1.4,1.7&#10;&#9;&#9;&#9;C134.9,185.4,135.5,186,136.3,186.1z"/>
	</g>
	<g id="hand-2_qr-code-37">
		<path class="st4_qr-code-37" d="M42.1,392.1c0,0,50.8-58,63-56.6s20.3,12,15.4,24.5s-46.2,50.8-46.2,50.8c8.7,6.2,15,15.1,18.1,25.3"/>
		<path class="st1_qr-code-37" d="M92.3,437.4c0.1,0,0.3,0,0.4-0.1c0.8-0.2,1.2-1,1-1.8c0,0,0,0,0,0c-3-9.9-9-18.7-17.2-25&#10;&#9;&#9;&#9;c7.4-6.9,40.6-38.5,45.2-50c2.4-6,2-12-0.9-17c-3.1-5.2-8.9-8.7-15.8-9.5h-0.5c-13.4,0-58.5,51.3-63.7,57.1&#10;&#9;&#9;&#9;c-0.6,0.6-0.6,1.6-0.1,2.2c0.6,0.6,1.6,0.6,2.2,0.1c0.1-0.1,0.2-0.2,0.2-0.3l0,0c19.4-22.2,53.3-57,61.6-56.1&#10;&#9;&#9;&#9;c5.8,0.7,10.8,3.6,13.5,8c2.5,4.1,2.7,9.2,0.7,14.3c-4.8,11.9-45.4,49.7-45.8,50.1c-0.6,0.6-0.7,1.6-0.1,2.2l0.3,0.2&#10;&#9;&#9;&#9;c8.4,5.9,14.5,14.5,17.5,24.3C91,436.9,91.6,437.4,92.3,437.4z"/>
	</g>
	<path class="st3_qr-code-37" d="M213.3,107.5l-75.4,49.9c-0.9,0.6-2.1,0.3-2.6-0.5c-0.6-0.8-0.4-2,0.4-2.6c0,0,0.1-0.1,0.1-0.1l75.4-49.9&#10;&#9;&#9;c0.9-0.6,2.1-0.3,2.6,0.5C214.4,105.7,214.2,106.9,213.3,107.5z"/>
	<path class="st3_qr-code-37" d="M322.1,413.2l-88.8,17.1c-1,0.2-2-0.5-2.2-1.5c0,0,0,0,0,0c-0.2-1,0.4-2,1.4-2.2c0,0,0.1,0,0.1,0l88.8-17.1&#10;&#9;&#9;c1-0.2,2,0.5,2.2,1.6C323.7,412.1,323.1,413,322.1,413.2L322.1,413.2z"/>
</g>
</svg>